<svg width="192" height="192" viewBox="0 0 192 192" fill="none" xmlns="http://www.w3.org/2000/svg">
<rect width="192" height="192" fill="#0033AA"/>
<path d="M121.463 125.114C120.52 125.566 119.707 126.382 119.132 127.451C118.558 128.52 118.25 129.792 118.25 131.095C118.25 132.398 118.558 133.67 119.132 134.74C119.707 135.809 120.52 136.625 121.463 137.076C122.406 136.625 123.219 135.809 123.794 134.74C124.369 133.67 124.677 132.398 124.677 131.095C124.677 129.792 124.369 128.52 123.794 127.451C123.219 126.382 122.406 125.566 121.463 125.114Z" fill="#006EFC"/>
<path d="M62.8124 125.114C61.799 125.566 60.9248 126.382 60.3073 127.451C59.6899 128.52 59.3589 129.792 59.3589 131.095C59.3589 132.398 59.6899 133.67 60.3073 134.74C60.9248 135.809 61.799 136.625 62.8124 137.076C63.8257 136.625 64.7 135.809 65.3174 134.74C65.9348 133.67 66.2658 132.398 66.2658 131.095C66.2658 129.792 65.9348 128.52 65.3174 127.451C64.7 126.382 63.8257 125.566 62.8124 125.114Z" fill="#006EFC"/>
<path d="M61.2856 65.6679L71.093 111.534H122.487L132.295 65.6679H61.2856Z" fill="#006EFC"/>
<path d="M146.219 52.1135H138.784C137.154 52.11 135.571 52.6543 134.29 53.6585C133.009 54.6626 132.106 56.0677 131.727 57.6466L130.364 63.258H45.4466C45.0803 63.2567 44.7185 63.3385 44.3886 63.4974C44.0588 63.6562 43.7697 63.8879 43.5432 64.1747C43.3167 64.4615 43.1588 64.796 43.0816 65.1527C43.0043 65.5095 43.0097 65.879 43.0973 66.2334L54.2153 112.143C54.3426 112.668 54.6434 113.135 55.0695 113.47C55.4956 113.804 56.0222 113.986 56.5646 113.987H118.085L116.059 122.339H59.8572C58.109 122.339 56.4002 122.856 54.9472 123.824C53.4942 124.793 52.3625 126.169 51.6955 127.779C51.0285 129.388 50.8562 131.159 51.2005 132.866C51.5447 134.574 52.39 136.141 53.6293 137.369C54.8685 138.598 56.4459 139.432 58.1616 139.766C59.8772 140.101 61.654 139.92 63.2666 139.248C64.8793 138.576 66.2552 137.441 67.2202 135.989C68.1852 134.537 68.6957 132.832 68.687 131.091C68.6871 129.711 68.3578 128.352 67.7263 127.124H110.399C109.756 128.349 109.414 129.709 109.403 131.091C109.403 132.716 109.853 134.309 110.706 135.694C111.559 137.079 112.78 138.202 114.234 138.938C115.689 139.674 117.319 139.994 118.945 139.863C120.571 139.732 122.128 139.155 123.445 138.196C124.762 137.237 125.786 135.933 126.404 134.43C127.022 132.926 127.21 131.281 126.948 129.678C126.685 128.074 125.981 126.575 124.914 125.345C123.848 124.116 122.46 123.205 120.906 122.713L123.508 112.143L127.002 97.5616L136.478 58.7776C136.605 58.2523 136.906 57.7848 137.332 57.4503C137.758 57.1158 138.285 56.9337 138.827 56.9332H146.263C146.904 56.9332 147.52 56.6793 147.973 56.2274C148.427 55.7754 148.682 55.1625 148.682 54.5233C148.682 53.8842 148.427 53.2712 147.973 52.8193C147.52 52.3674 146.904 52.1135 146.263 52.1135H146.219ZM58.4686 109.115L48.5209 68.0777H129.203L119.255 109.115H58.4686ZM63.8485 131.091C63.8503 131.878 63.6177 132.647 63.1801 133.302C62.7426 133.957 62.1199 134.468 61.3907 134.77C60.6615 135.073 59.8588 135.153 59.0839 135C58.3091 134.848 57.5971 134.47 57.0381 133.914C56.479 133.358 56.098 132.65 55.9433 131.879C55.7886 131.107 55.8671 130.307 56.1689 129.58C56.4708 128.853 56.9823 128.232 57.6389 127.794C58.2954 127.357 59.0675 127.124 59.8572 127.124C60.9136 127.126 61.9261 127.545 62.6739 128.288C63.4217 129.031 63.8439 130.039 63.8485 131.091ZM122.251 131.091C122.252 131.878 122.02 132.648 121.582 133.303C121.144 133.958 120.521 134.469 119.791 134.771C119.061 135.073 118.258 135.153 117.483 135C116.708 134.846 115.996 134.468 115.437 133.911C114.878 133.354 114.498 132.645 114.344 131.873C114.191 131.101 114.27 130.301 114.574 129.574C114.877 128.847 115.39 128.226 116.047 127.79C116.705 127.354 117.478 127.122 118.268 127.124C119.324 127.126 120.335 127.545 121.082 128.288C121.828 129.032 122.248 130.04 122.251 131.091Z" fill="white"/>
</svg>